<svg width="120" height="32" viewBox="0 0 120 32" fill="none" xmlns="http://www.w3.org/2000/svg">
<rect x="2" y="5" width="4" height="22" rx="2" fill="white"/>
<rect x="8" y="2" width="4" height="28" rx="2" fill="white"/>
<rect x="14" y="7" width="4" height="18" rx="2" fill="white"/>
<rect x="20" y="10" width="4" height="12" rx="2" fill="white"/>
<rect x="26" y="12" width="4" height="8" rx="2" fill="white"/>
<rect x="32" y="7" width="4" height="18" rx="2" fill="white"/>
<rect x="38" y="2" width="4" height="28" rx="2" fill="white"/>
<rect x="44" y="5" width="4" height="22" rx="2" fill="white"/>
<rect x="50" y="5" width="4" height="22" rx="2" fill="white"/>
<rect x="56" y="2" width="4" height="28" rx="2" fill="white"/>
<rect x="62" y="7" width="4" height="18" rx="2" fill="white"/>
<rect x="68" y="10" width="4" height="12" rx="2" fill="white"/>
<rect x="74" y="10" width="4" height="12" rx="2" fill="white"/>
<rect x="80" y="7" width="4" height="18" rx="2" fill="white"/>
<rect x="86" y="5" width="4" height="22" rx="2" fill="white"/>
<rect x="92" y="5" width="4" height="22" rx="2" fill="white"/>
<rect x="98" y="2" width="4" height="28" rx="2" fill="white"/>
<rect x="104" y="5" width="4" height="22" rx="2" fill="white"/>
<rect x="110" y="2" width="4" height="28" rx="2" fill="white"/>
<rect x="116" y="7" width="4" height="18" rx="2" fill="white"/>
</svg>
